<svg width="0" height="0" class="hidden">
    <symbol viewBox="0 0 512 512" xmlns="http://www.w3.org/2000/svg" id="decor-dot">
        <path d="M256 8C119 8 8 119 8 256s111 248 248 248 248-111 248-248S393 8 256 8z"/>
    </symbol>

    <symbol viewBox="0 0 1000 1000" xmlns="http://www.w3.org/2000/svg" id="decor-star">
        <path d="M450 75L338 312 88 350C46 354 25 417 58 450L238 633 196 896C188 942 238 975 275 954L500 837 725 954C767 975 813 942 804 896L763 633 942 450C975 417 954 358 913 350L663 312 550 75C529 33 471 33 450 75Z"/>
    </symbol>
    <symbol viewBox="0 0 256 512" xmlns="http://www.w3.org/2000/svg" id="chevron">
        <path d="M31.7 239l136-136c9.4-9.4 24.6-9.4 33.9 0l22.6 22.6c9.4 9.4 9.4 24.6 0 33.9L127.9 256l96.4 96.4c9.4 9.4 9.4 24.6 0 33.9L201.7 409c-9.4 9.4-24.6 9.4-33.9 0l-136-136c-9.5-9.4-9.5-24.6-.1-34z"/>
    </symbol>


</svg>